<?xml version="1.0" standalone="no"?><!DOCTYPE svg PUBLIC "-//W3C//DTD SVG 1.1//EN" "http://www.w3.org/Graphics/SVG/1.1/DTD/svg11.dtd"><svg t="1614586854914" class="icon" viewBox="0 0 1024 1024" version="1.1" xmlns="http://www.w3.org/2000/svg" p-id="4247" width="32" height="32" xmlns:xlink="http://www.w3.org/1999/xlink"><defs><style type="text/css"></style></defs><path d="M464.081743 464.816989V169.827732A169.813593 169.813593 0 0 0 294.254011 0h-124.426279A169.813593 169.813593 0 0 0 0 169.827732v125.161525a169.827732 169.827732 0 0 0 169.827732 169.827732zM558.504322 464.816989h295.667946a169.841871 169.841871 0 0 0 169.827732-169.827732v-125.161525A169.827732 169.827732 0 0 0 854.172268 0h-125.840214A169.813593 169.813593 0 0 0 558.504322 169.827732zM464.081743 559.183011H169.827732A169.813593 169.813593 0 0 0 0 729.010743v125.161525a169.827732 169.827732 0 0 0 169.827732 169.827732h124.426279a169.827732 169.827732 0 0 0 169.827732-169.827732zM558.504322 559.183011v294.989257a169.827732 169.827732 0 0 0 169.771174 169.827732h125.840215a169.841871 169.841871 0 0 0 169.884289-169.827732v-125.161525a169.827732 169.827732 0 0 0-169.827732-169.827732z" p-id="4248"></path></svg>