<?xml version="1.0" standalone="no"?><!DOCTYPE svg PUBLIC "-//W3C//DTD SVG 1.1//EN" "http://www.w3.org/Graphics/SVG/1.1/DTD/svg11.dtd"><svg t="1614601818654" class="icon" viewBox="0 0 1026 1024" version="1.1" xmlns="http://www.w3.org/2000/svg" p-id="7173" width="32.0625" height="32" xmlns:xlink="http://www.w3.org/1999/xlink"><defs><style type="text/css"></style></defs><path d="M975.644444 662.755556V361.244444c28.444444-14.222222 51.2-42.666667 51.2-76.8 0-48.355556-36.977778-85.333333-85.333333-85.333333-19.911111 0-39.822222 8.533333-54.044444 19.911111L594.488889 65.422222C585.955556 28.444444 551.822222 0 512 0c-42.666667 0-79.644444 31.288889-85.333333 73.955556L145.066667 224.711111C130.844444 207.644444 108.088889 199.111111 85.333333 199.111111c-48.355556 0-85.333333 36.977778-85.333333 85.333333 0 39.822222 28.444444 73.955556 65.422222 82.488889v290.133334C28.444444 665.6 0 699.733333 0 739.555556c0 48.355556 36.977778 85.333333 85.333333 85.333333 22.755556 0 45.511111-8.533333 59.733334-25.6l281.6 150.755555c5.688889 42.666667 39.822222 73.955556 85.333333 73.955556 39.822222 0 73.955556-28.444444 82.488889-65.422222l290.133333-153.6c14.222222 11.377778 34.133333 19.911111 54.044445 19.911111 48.355556 0 85.333333-36.977778 85.333333-85.333333 0-34.133333-19.911111-62.577778-48.355556-76.8z m-96.711111 14.222222l-133.688889-65.422222v-199.111112l133.688889-65.422222c11.377778 11.377778 22.755556 17.066667 36.977778 19.911111v290.133334c-14.222222 2.844444-25.6 11.377778-36.977778 19.911111zM853.333333 295.822222l-139.377777 68.266667L540.444444 264.533333V164.977778c19.911111-8.533333 36.977778-22.755556 45.511112-39.822222l267.377777 142.222222v28.444444zM520.533333 705.422222l-170.666666-96.711111v-193.422222l170.666666-96.711111 170.666667 96.711111v193.422222l-170.666667 96.711111zM483.555556 164.977778v105.244444l-167.822223 96.711111L170.666667 295.822222V284.444444v-8.533333l270.222222-145.066667c8.533333 17.066667 25.6 28.444444 42.666667 34.133334zM145.066667 347.022222l147.911111 73.955556v184.888889l-147.911111 73.955555c-5.688889-5.688889-14.222222-11.377778-22.755556-17.066666V361.244444c8.533333-2.844444 14.222222-8.533333 22.755556-14.222222zM170.666667 728.177778l145.066666-73.955556 167.822223 96.711111v105.244445c-17.066667 5.688889-34.133333 17.066667-42.666667 34.133333l-270.222222-142.222222V739.555556v-11.377778z m369.777777 130.844444v-99.555555l176.355556-99.555556 139.377778 68.266667v11.377778c0 5.688889 0 11.377778 2.844444 17.066666l-267.377778 142.222222c-14.222222-19.911111-31.288889-34.133333-51.2-39.822222z" p-id="7174"></path></svg>