<?xml version="1.0" standalone="no"?><!DOCTYPE svg PUBLIC "-//W3C//DTD SVG 1.1//EN" "http://www.w3.org/Graphics/SVG/1.1/DTD/svg11.dtd"><svg t="1627097813523" class="icon" viewBox="0 0 1805 1024" version="1.1" xmlns="http://www.w3.org/2000/svg" p-id="7155" xmlns:xlink="http://www.w3.org/1999/xlink" width="112.8125" height="64"><defs><style type="text/css">@font-face { font-family: feedback-iconfont; src: url("//at.alicdn.com/t/font_1031158_1uhr8ri0pk5.eot?#iefix") format("embedded-opentype"), url("//at.alicdn.com/t/font_1031158_1uhr8ri0pk5.woff2") format("woff2"), url("//at.alicdn.com/t/font_1031158_1uhr8ri0pk5.woff") format("woff"), url("//at.alicdn.com/t/font_1031158_1uhr8ri0pk5.ttf") format("truetype"), url("//at.alicdn.com/t/font_1031158_1uhr8ri0pk5.svg#iconfont") format("svg"); }
</style></defs><path d="M1617.044941 54.861191h-1.586894a379.721054 379.721054 0 0 0-79.344697 15.415541c-3.400487-22.669914-6.574275-45.339827-8.614568-65.742749V0L1475.811379 17.682533c0 2.266991-3.627186 22.669914-7.027673 50.780606l-168.664158-29.244188H1133.495683L849.441665 65.51605H379.721054A285.640912 285.640912 0 0 0 129.218508 208.563206a128.53841 128.53841 0 0 0-13.375249 37.632056l-43.072836 211.963693v43.072836l27.657295 22.669914 1.813593-64.609254 14.962143-73.903919 18.816028 98.614125L97.02723 612.087669l-68.009741 57.80828h-1.133495v161.183086L0 890.02081v111.309276l22.669914 22.669914h108.588886v-24.483507L90.679655 931.733451l31.964578-128.311711 148.034536-136.019482-16.322338 103.374806 58.941776 97.480629 14.962143 25.390303 50.780606 108.815586 22.669914 21.536418h108.362187v-24.936905l-68.009741-68.009741-43.072836-95.440337 1.586894-42.166039 46.926722-174.558335 121.737436 38.538853h281.560328L974.806287 705.034315v146.674341l-19.042727 148.261236v1.360194l24.030108 21.536418H1088.155856v-23.350011l-41.259243-68.009741 11.108257-96.347133 57.581581-126.04472 61.888864-15.188842 130.352004 129.445207 49.420412 71.183529 45.339827 106.548594 22.669914 21.536418h108.362187v-23.57671l-68.009741-68.009741-70.95683-142.593757-19.949524-45.339827-16.775736-108.815586 70.276733-34.458269 55.314589-39.899048c33.324773 61.888864 88.639362 97.480629 131.032101 97.480629 56.901483 0 92.039849-68.009741 97.480629-79.117999l14.508744-1.586894a70.95683 70.95683 0 0 0 48.286916-26.0704l20.856321-25.617003c13.375249-76.851007 12.241753-265.011291-6.800974-338.235111a177.278725 177.278725 0 0 0-171.837946-131.938898z" fill="#9A6A44" p-id="7156"></path></svg>