<?xml version="1.0" standalone="no"?><!DOCTYPE svg PUBLIC "-//W3C//DTD SVG 1.1//EN" "http://www.w3.org/Graphics/SVG/1.1/DTD/svg11.dtd"><svg t="1645600189585" class="icon" viewBox="0 0 1024 1024" version="1.1" xmlns="http://www.w3.org/2000/svg" p-id="2716" xmlns:xlink="http://www.w3.org/1999/xlink" width="32" height="32"><defs><style type="text/css"></style></defs><path d="M106.496 180.224l0 667.648c0 40.96 32.768 73.728 73.728 73.728l667.648 0c40.96 0 73.728-32.768 73.728-73.728L921.6 180.224c0-40.96-32.768-73.728-73.728-73.728L180.224 106.496C139.264 106.496 106.496 139.264 106.496 180.224zM143.36 180.224c0-20.48 16.384-36.864 36.864-36.864l667.648 0c20.48 0 36.864 16.384 36.864 36.864l0 667.648c0 20.48-16.384 36.864-36.864 36.864L180.224 884.736c-20.48 0-36.864-16.384-36.864-36.864L143.36 180.224z" p-id="2717"></path><path d="M307.2 696.32c4.096 0 8.192 0 12.288-4.096l0 0 147.456-110.592 0 0c4.096-4.096 8.192-8.192 8.192-16.384 0-4.096-4.096-12.288-8.192-16.384l0 0-147.456-110.592 0 0c-4.096-4.096-8.192-4.096-12.288-4.096-8.192 0-20.48 8.192-20.48 20.48 0 4.096 4.096 12.288 8.192 16.384l0 0 126.976 94.208-126.976 94.208 0 0c-4.096 4.096-8.192 8.192-8.192 16.384C290.816 688.128 299.008 696.32 307.2 696.32z" p-id="2718"></path><path d="M491.52 733.184l110.592 0c8.192 0 20.48-8.192 20.48-20.48 0-8.192-8.192-20.48-20.48-20.48L491.52 692.224c-8.192 0-20.48 8.192-20.48 20.48C475.136 724.992 483.328 733.184 491.52 733.184z" p-id="2719"></path></svg>