<?xml version="1.0" standalone="no"?><!DOCTYPE svg PUBLIC "-//W3C//DTD SVG 1.1//EN" "http://www.w3.org/Graphics/SVG/1.1/DTD/svg11.dtd"><svg t="1614601909272" class="icon" viewBox="0 0 1024 1024" version="1.1" xmlns="http://www.w3.org/2000/svg" p-id="8115" width="32" height="32" xmlns:xlink="http://www.w3.org/1999/xlink"><defs><style type="text/css"></style></defs><path d="M847.36 224H704V176.64A48 48 0 0 0 655.68 128h-480A48 48 0 0 0 128 176.64v576A48 48 0 0 0 176.64 800H320v48a48 48 0 0 0 48 48h480a48 48 0 0 0 48-48v-576A48 48 0 0 0 847.36 224z m0 623.04h-480V704A24 24 0 0 0 320 704v48H176.64v-576h480V224h-288A48 48 0 0 0 320 272.32V416a24 24 0 0 0 48 0V272.32h480z" p-id="8116"></path><path d="M847.36 903.36h-480a56.32 56.32 0 0 1-56-56v-40H176.64a56 56 0 0 1-56-55.68v-576a56 56 0 0 1 56-55.04h480a56 56 0 0 1 56 56v39.68h135.68a56 56 0 0 1 56 56v576a56 56 0 0 1-56.96 55.04z m-672-768a40 40 0 0 0-38.72 41.28v576a40 40 0 0 0 40 39.68h151.68v56a40 40 0 0 0 40 40h480a40 40 0 0 0 40-40v-576a40 40 0 0 0-40-40h-152.64V176.64a40 40 0 0 0-40-40z m680 720H360.32V704a16 16 0 0 0-16-16 16 16 0 0 0-16 16v56h-160V168.64h495.36v64h-295.36a40 40 0 0 0-40 40V416a16 16 0 0 0 16 16 16 16 0 0 0 16-16V264.32h495.04z m-480-16h464V280.32H376.32V416a32 32 0 0 1-64 0V272.32a56.32 56.32 0 0 1 56-56h279.36v-32H184.64v559.36h128V704a32 32 0 0 1 64 0z" p-id="8117"></path><path d="M645.76 536H296.32a24 24 0 1 0 0 47.68h349.44L544 686.72a24 24 0 0 0 0 33.92 23.68 23.68 0 0 0 33.6 0l144-144a24 24 0 0 0 0-33.92L576 399.36a24 24 0 0 0-32 33.92z" p-id="8118"></path><path d="M560 730.88a27.2 27.2 0 0 1-19.2-46.4l96-97.6H296.32a27.2 27.2 0 1 1 0-54.08h341.76l-96-96a27.52 27.52 0 0 1-8-19.2 26.24 26.24 0 0 1 8-19.2 27.84 27.84 0 0 1 38.4 0l143.68 143.36a27.2 27.2 0 0 1 0 38.4l-144 144a26.56 26.56 0 0 1-20.16 6.72z m-263.68-192a21.12 21.12 0 0 0-20.8 20.8 21.12 21.12 0 0 0 20.8 20.8h357.12l-5.44 5.44L544 688.96a20.8 20.8 0 0 0 0 29.44 20.8 20.8 0 0 0 29.12 0l144-144a20.8 20.8 0 0 0 0-29.12L576 401.6a21.12 21.12 0 0 0-29.44 0 20.48 20.48 0 0 0 0 29.12l108.16 108.48z" p-id="8119"></path></svg>