<?xml version="1.0" standalone="no"?><!DOCTYPE svg PUBLIC "-//W3C//DTD SVG 1.1//EN" "http://www.w3.org/Graphics/SVG/1.1/DTD/svg11.dtd"><svg t="1619580579493" class="icon" viewBox="0 0 1024 1024" version="1.1" xmlns="http://www.w3.org/2000/svg" p-id="2040" xmlns:xlink="http://www.w3.org/1999/xlink" width="32" height="32"><defs><style type="text/css"></style></defs><path d="M756.315353 350.539419h-467.385892c-23.369295 0-42.489627-19.120332-42.489627-42.489626s19.120332-42.489627 42.489627-42.489627h467.385892c23.369295 0 42.489627 19.120332 42.489626 42.489627s-19.120332 42.489627-42.489626 42.489626zM756.315353 786.058091h-467.385892c-23.369295 0-42.489627-19.120332-42.489627-42.489626s19.120332-42.489627 42.489627-42.489627h467.385892c23.369295 0 42.489627 19.120332 42.489626 42.489627s-19.120332 42.489627-42.489626 42.489626z" p-id="2041"></path><path d="M851.917012 1024H172.082988c-72.232365 0-129.593361-57.360996-129.593361-129.593361v-764.813278C42.489627 57.360996 99.850622 0 172.082988 0h679.834024c72.232365 0 129.593361 57.360996 129.593361 129.593361v764.813278c0 72.232365-57.360996 129.593361-129.593361 129.593361zM172.082988 46.738589C125.344398 46.738589 89.228216 84.979253 89.228216 129.593361v764.813278C89.228216 939.020747 125.344398 977.261411 172.082988 977.261411h679.834024c46.738589 0 82.854772-38.240664 82.854772-82.854772v-764.813278c0-46.738589-38.240664-82.854772-82.854772-82.854772H172.082988z" p-id="2042"></path><path d="M745.692946 569.360996H278.307054c-23.369295 0-42.489627-19.120332-42.489627-42.489627s19.120332-42.489627 42.489627-42.489626h467.385892c23.369295 0 42.489627 19.120332 42.489627 42.489626s-19.120332 42.489627-42.489627 42.489627z" p-id="2043"></path></svg>