<?xml version="1.0" standalone="no"?><!DOCTYPE svg PUBLIC "-//W3C//DTD SVG 1.1//EN" "http://www.w3.org/Graphics/SVG/1.1/DTD/svg11.dtd"><svg t="1614920387536" class="icon" viewBox="0 0 1024 1024" version="1.1" xmlns="http://www.w3.org/2000/svg" p-id="2948" xmlns:xlink="http://www.w3.org/1999/xlink" width="32" height="32"><defs><style type="text/css"></style></defs><path d="M111.104 388.096h25.088V165.888c0-18.432 15.36-33.792 33.792-33.792h250.368c9.728 0 19.456 4.608 25.6 12.288l116.224 126.464h292.352c18.432 0 33.28 14.848 33.792 33.28v83.456h25.6c18.432 0 33.28 14.848 33.28 33.28 0 2.048 0 3.584-0.512 5.632l-53.248 431.616c-1.536 10.24-7.168 18.944-15.36 24.576a32.8704 32.8704 0 0 1-23.552 9.728H169.984c-8.704 0-16.896-3.072-23.04-9.216-8.704-6.144-14.336-15.36-15.872-26.112L77.824 425.472c-2.56-17.92 10.24-34.816 28.672-36.864h1.024l3.584-0.512z m92.16 0h617.984v-49.664h-273.92V337.92c-9.216 0-17.92-4.096-24.064-10.752L405.504 199.68H203.264v188.416zM875.52 455.168H148.992l45.056 365.568h635.904l45.568-365.568z" p-id="2949"></path></svg>