<?xml version="1.0" standalone="no"?><!DOCTYPE svg PUBLIC "-//W3C//DTD SVG 1.1//EN" "http://www.w3.org/Graphics/SVG/1.1/DTD/svg11.dtd"><svg t="1614585460181" class="icon" viewBox="0 0 1024 1024" version="1.1" xmlns="http://www.w3.org/2000/svg" p-id="2387" width="32" height="32" xmlns:xlink="http://www.w3.org/1999/xlink"><defs><style type="text/css"></style></defs><path d="M400.779155 111.025065h234.371837a55.512533 55.512533 0 1 0 0-111.025065H400.779155a55.512533 55.512533 0 0 0 0 111.025065z m0 0" p-id="2388"></path><path d="M881.909388 61.738237H746.176057v11.154388a74.708455 74.708455 0 0 1-75.162412 75.162412H352.724498a74.708455 74.708455 0 0 1-75.162413-75.162412 33.009205 33.009205 0 0 1 1.297022-11.154388H141.958457A85.797991 85.797991 0 0 0 55.641657 148.055037v789.626866a85.797991 85.797991 0 0 0 86.3168 86.3168h740.210335a85.73314 85.73314 0 0 0 86.3168-86.3168V148.055037A85.927694 85.927694 0 0 0 881.909388 61.738237zM739.690948 764.9186H270.882423a30.804268 30.804268 0 1 1 0-61.608535h468.808525a30.415161 30.415161 0 0 1 30.869119 30.739417 31.323076 31.323076 0 0 1-30.869119 30.869118z m0-185.085009H270.882423a30.804268 30.804268 0 1 1 0-61.608535h468.808525a30.544863 30.544863 0 0 1 30.869119 30.869119 31.193374 31.193374 0 0 1-30.869119 30.739416z m0-184.955307H270.882423a30.804268 30.804268 0 1 1 0-61.608535h468.808525a30.544863 30.544863 0 0 1 30.869119 30.869118 31.387927 31.387927 0 0 1-30.869119 30.739417z m0 0" p-id="2389"></path></svg>