<?xml version="1.0" standalone="no"?><!DOCTYPE svg PUBLIC "-//W3C//DTD SVG 1.1//EN" "http://www.w3.org/Graphics/SVG/1.1/DTD/svg11.dtd"><svg t="1614584008057" class="icon" viewBox="0 0 1024 1024" version="1.1" xmlns="http://www.w3.org/2000/svg" p-id="2444" width="32" height="32" xmlns:xlink="http://www.w3.org/1999/xlink"><defs><style type="text/css"></style></defs><path d="M804.571429 0c121.179429 0 219.428571 98.249143 219.428571 219.428571v585.142858c0 121.179429-98.249143 219.428571-219.428571 219.428571H219.428571C98.249143 1024 0 925.750857 0 804.571429V219.428571C0 98.249143 98.249143 0 219.428571 0h585.142858z m-124.342858 460.8H341.942857c-37.357714 0-67.657143 30.555429-67.657143 68.260571v170.678858C274.285714 737.444571 304.585143 768 341.942857 768h338.285714c37.357714 0 67.657143-30.555429 67.657143-68.260571v-170.678858c0-37.705143-30.299429-68.260571-67.657143-68.260571z m-162.742857 170.203429a38.4 38.4 0 1 1 0 76.8 38.4 38.4 0 0 1 0-76.8zM505.380571 345.6c-38.765714 0-71.186286 11.995429-95.926857 36.077714a23.789714 23.789714 0 0 0-0.603428 33.426286 23.277714 23.277714 0 0 0 33.133714 0.603429c15.597714-15.177143 36.278857-22.820571 63.396571-22.820572s47.780571 7.643429 63.378286 22.820572c9.325714 9.069714 24.137143 8.795429 33.133714-0.603429a23.789714 23.789714 0 0 0-0.603428-33.426286c-24.740571-24.082286-57.161143-36.077714-95.908572-36.077714z m-3.766857-89.6c-59.428571 0-107.776 17.993143-143.670857 54.198857-9.142857 9.234286-9.142857 24.210286 0 33.444572 9.142857 9.234286 23.990857 9.234286 33.152 0 26.569143-26.843429 62.939429-40.356571 110.500572-40.356572 47.36 0 87.149714 13.897143 120.32 41.782857 9.984 8.082286 24.502857 6.619429 32.694857-3.291428a23.771429 23.771429 0 0 0-2.688-33.005715C610.139429 273.609143 559.725714 256 501.613714 256z" p-id="2445"></path></svg>