<?xml version="1.0" standalone="no"?><!DOCTYPE svg PUBLIC "-//W3C//DTD SVG 1.1//EN" "http://www.w3.org/Graphics/SVG/1.1/DTD/svg11.dtd"><svg t="1614586820095" class="icon" viewBox="0 0 1024 1024" version="1.1" xmlns="http://www.w3.org/2000/svg" p-id="3360" width="32" height="32" xmlns:xlink="http://www.w3.org/1999/xlink"><defs><style type="text/css"></style></defs><path d="M806.912 282.5216H217.088c-18.1248 0-32.8704 14.7456-32.8704 32.8704 0 18.1248 14.7456 32.8704 32.8704 32.8704h589.824c18.1248 0 32.8704-14.7456 32.8704-32.8704 0-18.1248-14.7456-32.8704-32.8704-32.8704zM806.912 479.3344H217.088c-18.1248 0-32.8704 14.7456-32.8704 32.8704 0 18.1248 14.7456 32.8704 32.8704 32.8704h589.824c18.1248 0 32.8704-14.7456 32.8704-32.8704 0-18.1248-14.7456-32.8704-32.8704-32.8704zM806.912 675.7376H217.088c-18.1248 0-32.8704 14.7456-32.8704 32.8704 0 18.1248 14.7456 32.8704 32.8704 32.8704h589.824c18.1248 0 32.8704-14.7456 32.8704-32.8704 0-18.1248-14.7456-32.8704-32.8704-32.8704z" p-id="3361"></path></svg>