<?xml version="1.0" standalone="no"?><!DOCTYPE svg PUBLIC "-//W3C//DTD SVG 1.1//EN" "http://www.w3.org/Graphics/SVG/1.1/DTD/svg11.dtd"><svg t="1626342988749" class="icon" viewBox="0 0 1024 1024" version="1.1" xmlns="http://www.w3.org/2000/svg" p-id="27348" xmlns:xlink="http://www.w3.org/1999/xlink" width="64" height="64"><defs><style type="text/css"></style></defs><path d="M563.2 768v102.4h179.2a25.6 25.6 0 1 1 0 51.2H281.6a25.6 25.6 0 1 1 0-51.2h179.2V768H102.4a51.2 51.2 0 0 1-51.2-51.2V153.6a51.2 51.2 0 0 1 51.2-51.2h819.2a51.2 51.2 0 0 1 51.2 51.2v563.2a51.2 51.2 0 0 1-51.2 51.2H563.2z m268.288-313.037h-0.051v-55.296H591.82l-25.754 77.312L418.611 256 370.74 399.667H204.8v55.296h202.752l25.754-77.312 147.456 220.98 47.974-143.668h202.752z" p-id="27349"></path></svg>