<?xml version="1.0" standalone="no"?><!DOCTYPE svg PUBLIC "-//W3C//DTD SVG 1.1//EN" "http://www.w3.org/Graphics/SVG/1.1/DTD/svg11.dtd"><svg t="1618120659993" class="icon" viewBox="0 0 1024 1024" version="1.1" xmlns="http://www.w3.org/2000/svg" p-id="3704" xmlns:xlink="http://www.w3.org/1999/xlink" width="32" height="32"><defs><style type="text/css"></style></defs><path d="M876.2 434.3L536.7 94.9c-6.6-6.6-15.5-10.3-24.7-10.3-9.3 0-18.2 3.7-24.7 10.3L147.8 434.3c-13.7 13.7-13.7 35.8 0 49.5 13.7 13.7 35.8 13.7 49.5 0L477 204.1v700.2c0 19.3 15.7 35 35 35s35-15.7 35-35V204.1l279.7 279.7c6.8 6.8 15.8 10.3 24.7 10.3s17.9-3.4 24.7-10.3c13.7-13.7 13.7-35.8 0.1-49.5z" p-id="3705"></path></svg>