<?xml version="1.0" standalone="no"?><!DOCTYPE svg PUBLIC "-//W3C//DTD SVG 1.1//EN" "http://www.w3.org/Graphics/SVG/1.1/DTD/svg11.dtd"><svg t="1614910854823" class="icon" viewBox="0 0 1024 1024" version="1.1" xmlns="http://www.w3.org/2000/svg" p-id="2628" xmlns:xlink="http://www.w3.org/1999/xlink" width="32" height="32"><defs><style type="text/css"></style></defs><path d="M519.8848 440.32m-100.864 0a100.864 100.864 0 1 0 201.728 0 100.864 100.864 0 1 0-201.728 0Z" fill="#FACC31" p-id="2629"></path><path d="M815.104 168.9088l-247.6544-85.5552a146.13504 146.13504 0 0 0-95.0784 0L224.7168 168.9088a145.71008 145.71008 0 0 0-98.0992 137.6768v325.7344c0 162.0992 211.1488 261.376 336.9984 306.176 18.8928 6.7072 38.8096 10.0864 58.6752 10.0864 18.2784 0 36.5568-2.816 54.016-8.5504 101.2736-33.024 336.896-129.0752 336.896-307.712V306.5344c0-62.0544-39.424-117.3504-98.0992-137.6256z m46.8992 463.4112c0 145.1008-210.8928 229.4784-301.568 259.0208a124.27776 124.27776 0 0 1-79.7184-1.1264c-91.0848-32.4096-302.9504-122.368-302.9504-257.8944V306.5344c0-40.2432 25.5488-76.1344 63.5904-89.2416l247.6544-85.5552c9.9328-3.4304 20.3776-5.1712 30.8224-5.1712 10.4448 0 20.8896 1.6896 30.8224 5.1712l247.6544 85.5552a94.464 94.464 0 0 1 63.5904 89.2416v325.7856z" fill="#191919" p-id="2630"></path><path d="M519.8848 313.856c-69.7344 0-126.464 56.7296-126.464 126.464 0 60.9792 43.3664 111.9744 100.864 123.8528v125.184c0 14.1312 11.4688 25.6 25.6 25.6s25.6-11.4688 25.6-25.6v-125.184c57.4976-11.8784 100.864-62.8736 100.864-123.8528 0-69.7344-56.7296-126.464-126.464-126.464z m0 201.728c-41.5232 0-75.264-33.7408-75.264-75.264s33.7408-75.264 75.264-75.264 75.264 33.7408 75.264 75.264-33.7408 75.264-75.264 75.264z" fill="#191919" p-id="2631"></path></svg>