<?xml version="1.0" standalone="no"?><!DOCTYPE svg PUBLIC "-//W3C//DTD SVG 1.1//EN" "http://www.w3.org/Graphics/SVG/1.1/DTD/svg11.dtd"><svg t="1614332914550" class="icon" viewBox="0 0 1046 1024" version="1.1" xmlns="http://www.w3.org/2000/svg" p-id="3003" width="32.6875" height="32" xmlns:xlink="http://www.w3.org/1999/xlink"><defs><style type="text/css"></style></defs><path d="M939.455573 790.865126a31.043451 31.043451 0 0 0-60.127787 15.212737 368.05095 368.05095 0 0 1 9.716693 57.853108H168.917925c15.69923-184.078069 169.943503-329.052696 357.72943-330.222907 0.788906 0 1.485773 0.223523 2.274679 0.223523a218.001027 218.001027 0 1 0-218.001027-218.001027c0 72.316384 35.579661 135.902209 89.777504 175.531587C229.72943 545.870365 105.476733 706.070878 105.476733 894.895532a31.0566 31.0566 0 0 0 31.043452 31.043451h784.803698a31.043451 31.043451 0 0 0 31.043451-31.043451 420.670981 420.670981 0 0 0-12.898613-104.030406zM528.961479 163.369286a152.600719 152.600719 0 1 1-152.600719 152.600719A152.7585 152.7585 0 0 1 528.961479 163.369286z m0 0" p-id="3004"></path><path d="M921.323883 929.883513H136.520185a35.027427 35.027427 0 0 1-34.987982-34.987981 423.221777 423.221777 0 0 1 84.281459-254.461634 429.362096 429.362096 0 0 1 206.496148-150.418079 225.508783 225.508783 0 0 1-60.325013-72.316384 217.185824 217.185824 0 0 1-24.982024-101.847766c0-122.385619 99.559938-221.945557 221.945558-221.945557s221.945557 99.559938 221.945557 221.945557S651.294504 537.77093 528.922034 537.77093a11.16302 11.16302 0 0 1-1.709296-0.157782 3.734155 3.734155 0 0 0-0.552235-0.065742c-181.448382 1.143914-335.837288 142.371238-353.416743 322.333847h711.474884a365.684232 365.684232 0 0 0-9.203903-52.909296v-0.17093a34.987982 34.987982 0 0 1 67.767026-17.092963v0.170929a424.944222 424.944222 0 0 1 13.016949 105.00339 35.027427 35.027427 0 0 1-34.974833 35.00113zM528.922034 101.834617c-118.033487 0-214.056497 95.983564-214.056497 214.056498 0 68.555932 32.134771 131.379147 88.094504 172.349666l6.271803 4.588803-7.402568 2.35357c-174.874165 55.723061-292.473754 216.357473-292.473755 399.712378a27.125218 27.125218 0 0 0 27.098922 27.098921h784.86944a27.125218 27.125218 0 0 0 27.098921-27.098921 417.055162 417.055162 0 0 0-12.75398-102.965383 27.098921 27.098921 0 0 0-52.475398 13.279918 373.323472 373.323472 0 0 1 9.808731 58.339599l0.368156 4.286389H164.618387l0.368156-4.27324a365.684232 365.684232 0 0 1 361.581921-333.838727 11.202465 11.202465 0 0 1 1.735594 0.157782 3.760452 3.760452 0 0 0 0.552234 0.065742c118.033487 0 214.056497-95.983564 214.056497-214.056497S646.902928 101.834617 528.922034 101.834617z m0 370.680637a156.545249 156.545249 0 1 1 156.584694-156.545249A156.716179 156.716179 0 0 1 528.961479 472.515254z m0-305.201438a148.656189 148.656189 0 1 0 148.695634 148.656189A148.827119 148.827119 0 0 0 528.961479 167.313816z" p-id="3005"></path><path d="M573.495223 627.929738A32.713303 32.713303 0 0 0 527.252183 674.185927l110.565177 110.525732a32.608115 32.608115 0 0 0 46.216744 0L917.892142 550.853621a32.713303 32.713303 0 1 0-46.256189-46.256189l-210.769389 210.743092z m0 0" p-id="3006"></path><path d="M660.919158 798.254545a36.815614 36.815614 0 0 1-25.902414-10.755418l-110.565177-110.512584a36.657833 36.657833 0 1 1 51.844273-51.844273l84.583872 84.623318 207.955624-207.968772a36.657833 36.657833 0 0 1 51.844274 51.844273L686.808423 787.499127a36.302825 36.302825 0 0 1-25.889265 10.755418z m-110.552029-175.952336a28.755624 28.755624 0 0 0-20.340627 49.09625l110.565178 110.525732a28.926554 28.926554 0 0 0 20.327478 8.441294 28.479507 28.479507 0 0 0 20.314329-8.441294L915.130971 548.053005a28.768772 28.768772 0 1 0-40.760144-40.681254L660.866564 720.928608 570.642013 630.717206a28.676733 28.676733 0 0 0-20.274884-8.414997z" p-id="3007"></path></svg>