<?xml version="1.0" standalone="no"?><!DOCTYPE svg PUBLIC "-//W3C//DTD SVG 1.1//EN" "http://www.w3.org/Graphics/SVG/1.1/DTD/svg11.dtd"><svg t="1621062906426" class="icon" viewBox="0 0 1024 1024" version="1.1" xmlns="http://www.w3.org/2000/svg" p-id="1882" xmlns:xlink="http://www.w3.org/1999/xlink" width="48" height="48"><defs><style type="text/css"></style></defs><path d="M800 352c0 16 16 32 32 32h128c16 0 32-16 32-32V224c0-16-16-32-32-32s-32 16-32 32v48C841.6 124.8 684.8 32 512 32 246.4 32 32 246.4 32 512s214.4 480 480 480c192 0 368-115.2 441.6-294.4 16-35.2 25.6-70.4 32-105.6 3.2-16-9.6-35.2-25.6-38.4-19.2-3.2-35.2 9.6-38.4 25.6-6.4 32-16 64-25.6 92.8-64 153.6-214.4 252.8-384 252.8C281.6 928 96 742.4 96 512S281.6 96 512 96c156.8 0 297.6 86.4 368 224H832c-16 0-32 16-32 32z" p-id="1883"></path></svg>