<?xml version="1.0" standalone="no"?><!DOCTYPE svg PUBLIC "-//W3C//DTD SVG 1.1//EN" "http://www.w3.org/Graphics/SVG/1.1/DTD/svg11.dtd"><svg t="1615193290970" class="icon" viewBox="0 0 1024 1024" version="1.1" xmlns="http://www.w3.org/2000/svg" p-id="2316" xmlns:xlink="http://www.w3.org/1999/xlink" width="32" height="32"><defs><style type="text/css"></style></defs><path d="M883.824 603.006h-46.922c-7.612 27.613-18.546 53.772-32.526 78.063l43.357 43.322c27.752 27.751 27.752 72.735 0 100.485l-25.121 25.122c-27.751 27.752-72.735 27.752-100.486 0l-43.634-43.634c-24.187 13.77-50.278 24.535-77.75 32.007v45.502c0 39.241-31.8 71.04-71.04 71.04H494.2c-39.24 0-71.074-31.799-71.074-71.04V838.37c-27.439-7.473-53.53-18.236-77.751-32.007l-43.635 43.634c-27.715 27.752-72.699 27.752-100.45 0l-25.122-25.122c-27.751-27.75-27.751-72.734 0-100.485l43.357-43.322c-13.98-24.29-24.914-50.45-32.56-78.063h-46.887c-39.24 0-71.04-31.8-71.04-71.004v-35.539c0-39.24 31.8-71.04 71.04-71.04h46.332c7.336-27.335 17.856-53.357 31.454-77.508l-41.696-41.663c-27.751-27.749-27.751-72.733 0-100.485l25.122-25.12c27.751-27.754 72.735-27.754 100.45 0l40.866 40.9c25.018-14.569 52.008-25.917 80.521-33.704v-47.717c0-39.242 31.834-71.04 71.074-71.04h35.502c39.24 0 71.04 31.798 71.04 71.04v47.717c28.546 7.786 55.535 19.134 80.52 33.704l40.865-40.9c27.751-27.754 72.735-27.754 100.486 0l25.121 25.12c27.752 27.752 27.752 72.736 0 100.485l-41.696 41.663c13.6 24.152 24.084 50.173 31.454 77.507h46.333c39.24 0 71.038 31.801 71.038 71.041v35.539c-0.002 39.203-31.801 71.004-71.04 71.004z m-371.876-283.05c-107.89 0-195.364 87.475-195.364 195.367 0 107.89 87.474 195.364 195.364 195.364 107.893 0 195.367-87.474 195.367-195.364s-87.473-195.367-195.367-195.367z m0 281.94c-49.03 0-88.824-39.721-88.824-88.788 0-49.068 39.794-88.79 88.824-88.79 49.033 0 88.793 39.72 88.793 88.79 0 49.066-39.76 88.788-88.793 88.788z" p-id="2317"></path></svg>