<?xml version="1.0" standalone="no"?><!DOCTYPE svg PUBLIC "-//W3C//DTD SVG 1.1//EN" "http://www.w3.org/Graphics/SVG/1.1/DTD/svg11.dtd"><svg t="1614673629919" class="icon" viewBox="0 0 1024 1024" version="1.1" xmlns="http://www.w3.org/2000/svg" p-id="1915" width="32" height="32" xmlns:xlink="http://www.w3.org/1999/xlink"><defs><style type="text/css"></style></defs><path d="M347.36 458.72l96 0 0 96-96 0 0-96Z" fill="" p-id="1916"></path><path d="M507.36 474.72l160 0 0 64-160 0 0-64Z" fill="" p-id="1917"></path><path d="M507.36 257.12a147.52 147.52 0 0 0-135.68 89.6h-136.32a16 16 0 0 0-16 16v288a16 16 0 0 0 16 16h544a16 16 0 0 0 16-16v-288a16 16 0 0 0-16-16H643.2a148 148 0 0 0-135.84-89.6z m224 345.6h-448v-192h448z m-224-321.6a32 32 0 1 1-32 32 32 32 0 0 1 32-32z" fill="" p-id="1918"></path><path d="M946.56 252L520 5.6a16 16 0 0 0-16 0L77.44 252a16 16 0 0 0-8 13.76v492.48a16 16 0 0 0 8 13.76l426.56 246.4a16 16 0 0 0 16 0l426.56-246.4a16 16 0 0 0 8-13.76V265.76a16 16 0 0 0-8-13.76z m-88 460L512 912 165.44 712v-400L512 112l346.56 200z" fill="" p-id="1919"></path></svg>